<svg xmlns="http://www.w3.org/2000/svg" width="198.2" height="213.6" viewBox="0 0 198.2 213.6">
  <path d="M0 151.4c.1-6.1 1.7-11.8 4.9-16.9.7-1.1.7-1.8 0-3-3.4-5.5-4.5-11.6-4.7-18-.2-8.1.3-16.1 4.3-23.4 1.2-2.3 2.7-4.6 4.4-6.6C32.7 56.9 56.7 30.4 80.5 3.7 83.5.4 86.6-.6 90.9.4c33.4 7.6 66.9 15.2 100.3 22.8 7 1.6 9 7.8 4.4 13.3-24.5 29-49.1 58-73.6 87-3.1 3.6-6.4 4.6-10.9 3.2-27.4-8.4-54.8-16.6-82.2-24.9-6.7-2-11.1.7-12.1 7.7-.6 4.1-.1 8.2 1.4 12.1.8 2 2.1 3.3 4.3 3.9 30.9 9.4 61.8 18.9 92.7 28.4 1.8.5 2.7.3 3.8-1.2 20-24.8 40.1-49.6 60.2-74.5.7-.9 1.2-2.3 1.1-3.3-.6-5.1.2-10 1.8-14.8 1.6-4.7 5.7-6.7 10.3-5.4 4 1.2 6.4 5.5 5.4 10-.2 1-.6 2-.8 3-.5 2.5-.7 4.9.4 7.3 1 2.2.8 4.5-.1 6.7-2.4 6.2-3.7 12.6-3.6 19.2.1 5.3 1 10.5 3.2 15.5 1.7 3.7 1.2 7-1.4 10.2-22.9 27.8-45.7 55.7-68.6 83.5-2.8 3.4-6.3 3.9-10.4 2.6-18.7-6-37.4-12-56.2-18-13.2-4.2-26.4-8.6-39.6-12.6-11.2-3.4-17.1-11.2-19.7-22-.5-2.7-.6-5.7-1-8.7zM177.4 107c-.5.6-1 1.1-1.4 1.6L128 168c-3.4 4.2-6.4 5.1-11.6 3.5-31.5-9.7-63-19.3-94.5-29.1-1.9-.6-2.8-.1-3.5 1.5-2.7 6.1-2.1 12 .9 17.7 1.1 2.1 2.9 3.7 5.3 4.5 30.5 9.7 60.9 19.4 91.4 29.2 1.4.5 2.1.1 3-.9 4-5 8-9.8 12.1-14.8 16.1-19.6 32.3-39.3 48.4-58.9.5-.6.9-1.5.8-2.1-.9-3.8-1.9-7.6-2.9-11.6zm-46.2-51.8c1.6-.7 3.8-1.1 5.2-2.4 2.4-2.1 4.3-4.7 6.3-7.2 1-1.3.7-2.6-.6-3.4-.8-.5-1.7-.9-2.6-1.2L87.9 28.4c-4.1-1-7.7-.1-10.3 3.6-.8 1.1-1.8 2.1-2.7 3.2-3.4 4-2.9 5.7 2.3 7h.2c13.7 3.3 27.3 6.7 41 10 4.1 1 8.1 2 12.8 3z"/>
</svg>
