<svg xmlns="http://www.w3.org/2000/svg" width="663" height="661.3" viewBox="0 0 663 661.3">
    <path d="M315 0h33c1.8.3 3.6.7 5.4 1 14.2 1.8 28.6 2.6 42.5 5.5 88.7 18.4 159 65 210.3 139.6 29.8 43.3 47.6 91.5 53.9 143.8 1.1 9.4 2 18.8 2.9 28.2v25c-.3 1.9-.6 3.9-.9 5.8-2.5 18.3-3.6 36.9-7.6 54.8-39.4 173-208.7 287-388.8 250.9-79.7-16-144.8-56.8-195-120.6C30.7 483.2 7.8 425.3 2 360.7c-.7-7.2-1.4-14.4-2-21.7v-17c.3-2.1.6-4.2.9-6.4 2.1-17.5 2.9-35.2 6.6-52.4 17.2-80.8 59-146.5 124.8-196.5 46.5-35.4 99-56.5 157-63.9 8.5-1 17.1-1.8 25.7-2.8zm293.8 330.5c0-152.3-124.2-276.3-276.9-276.5-153-.2-277.2 123.6-277.3 276.5-.1 152.9 123.6 276.5 277 276.6 153 .1 277.2-123.8 277.2-276.6z"/><path d="M512.9 221.9c-12.2-12.2-32.1-12.2-44.3 0L285.3 405.3l-88.8-88.8c-12.2-12.2-32.1-12.2-44.3 0-12.2 12.2-12.2 32.1 0 44.3 0 0 109.7 110.1 110.7 111.1 12.2 12.2 32.1 12.2 44.3 0l205.7-205.7c12.3-12.2 12.3-32 0-44.3z"/>
</svg>
