<?xml version="1.0" encoding="UTF-8" standalone="no"?>
<svg width="663px" height="662px" viewBox="0 0 663 662" version="1.1" xmlns="http://www.w3.org/2000/svg" xmlns:xlink="http://www.w3.org/1999/xlink">
    <!-- Generator: Sketch 3.7.1 (28215) - http://www.bohemiancoding.com/sketch -->
    <title>Slice 1</title>
    <desc>Created with Sketch.</desc>
    <defs>
        <path d="M326.25,76.3522727 C329.25,65.2159091 335.25,65.2159091 338.25,76.3522727 C341.25,87.4886364 341.25,109.761364 338.25,120.897727 C335.25,132.034091 329.25,132.034091 326.25,120.897727 C323.25,109.761364 323.25,87.4886364 326.25,76.3522727 Z" id="path-1"></path>
        <mask id="mask-2" maskContentUnits="userSpaceOnUse" maskUnits="objectBoundingBox" x="0" y="0" width="16.5" height="61.25" fill="white">
            <use xlink:href="#path-1"></use>
        </mask>
        <path d="M326.25,542.352273 C329.25,531.215909 335.25,531.215909 338.25,542.352273 C341.25,553.488636 341.25,575.761364 338.25,586.897727 C335.25,598.034091 329.25,598.034091 326.25,586.897727 C323.25,575.761364 323.25,553.488636 326.25,542.352273 Z" id="path-3"></path>
        <mask id="mask-4" maskContentUnits="userSpaceOnUse" maskUnits="objectBoundingBox" x="0" y="0" width="16.5" height="61.25" fill="white">
            <use xlink:href="#path-3"></use>
        </mask>
        <path d="M94.625,308.977273 C97.625,297.840909 103.625,297.840909 106.625,308.977273 C109.625,320.113636 109.625,342.386364 106.625,353.522727 C103.625,364.659091 97.625,364.659091 94.625,353.522727 C91.625,342.386364 91.625,320.113636 94.625,308.977273 Z" id="path-5"></path>
        <mask id="mask-6" maskContentUnits="userSpaceOnUse" maskUnits="objectBoundingBox" x="0" y="0" width="16.5" height="61.25" fill="white">
            <use xlink:href="#path-5"></use>
        </mask>
        <path d="M558.625,308.977273 C561.625,297.840909 567.625,297.840909 570.625,308.977273 C573.625,320.113636 573.625,342.386364 570.625,353.522727 C567.625,364.659091 561.625,364.659091 558.625,353.522727 C555.625,342.386364 555.625,320.113636 558.625,308.977273 Z" id="path-7"></path>
        <mask id="mask-8" maskContentUnits="userSpaceOnUse" maskUnits="objectBoundingBox" x="0" y="0" width="16.5" height="61.25" fill="white">
            <use xlink:href="#path-7"></use>
        </mask>
    </defs>
    <g id="Page-1" stroke="none" stroke-width="1" fill="none" fill-rule="evenodd">
        <g id="clock" fill="#000000">
            <path d="M315,0 L348,0 C349.8,0.3 351.6,0.7 353.4,1 C367.6,2.8 382,3.6 395.9,6.5 C484.6,24.9 554.9,71.5 606.2,146.1 C636,189.4 653.8,237.6 660.1,289.9 C661.2,299.3 662.1,308.7 663,318.1 L663,343.1 C662.7,345 662.4,347 662.1,348.9 C659.6,367.2 658.5,385.8 654.5,403.7 C615.1,576.7 445.8,690.7 265.7,654.6 C186,638.6 120.9,597.8 70.7,534 C30.7,483.2 7.8,425.3 2,360.7 C1.3,353.5 0.6,346.3 0,339 L0,322 C0.3,319.9 0.6,317.8 0.9,315.6 C3,298.1 3.8,280.4 7.5,263.2 C24.7,182.4 66.5,116.7 132.3,66.7 C178.8,31.3 231.3,10.2 289.3,2.8 C297.8,1.8 306.4,1 315,4.70734562e-14 L315,0 Z M608.8,330.5 C608.8,178.2 484.6,54.2 331.9,54 C178.9,53.8 54.7,177.6 54.6,330.5 C54.5,483.4 178.2,607 331.6,607.1 C484.6,607.2 608.8,483.3 608.8,330.5 L608.8,330.5 Z" id="Shape"></path>
        </g>
        <g id="arrows" transform="translate(332.000000, 331.500000) rotate(35.000000) translate(-332.000000, -331.500000) translate(257.000000, 137.000000)" stroke="#979797" fill="#000000">
            <path d="M75.814814,0 C54.4069046,0 -17.5734542,183.609472 3.98207124,183.609469 C14.7585425,183.609468 45.2506755,170.064532 75.8148117,170.064529 C106.386273,170.064527 137.029559,183.609459 146.302063,183.609467 C164.844849,183.609482 97.2227234,0 75.814814,0 Z" id="Path-3"></path>
            <path d="M75.814814,205 C54.4069046,205 -17.5734542,388.609472 3.98207124,388.609469 C14.7585425,388.609468 45.2506755,375.064532 75.8148117,375.064529 C106.386273,375.064527 137.029559,388.609459 146.302063,388.609467 C164.844849,388.609482 97.2227234,205 75.814814,205 Z" id="Path-3" transform="translate(74.742230, 296.804735) scale(1, -1) translate(-74.742230, -296.804735) "></path>
        </g>
        <use id="Rectangle-1" stroke="#000000" mask="url(#mask-2)" stroke-width="2" fill="#000000" xlink:href="#path-1"></use>
        <use id="Rectangle-1" stroke="#000000" mask="url(#mask-4)" stroke-width="2" fill="#000000" xlink:href="#path-3"></use>
        <use id="Rectangle-1" stroke="#000000" mask="url(#mask-6)" stroke-width="2" fill="#000000" transform="translate(100.625000, 331.250000) rotate(-270.000000) translate(-100.625000, -331.250000) " xlink:href="#path-5"></use>
        <use id="Rectangle-1" stroke="#000000" mask="url(#mask-8)" stroke-width="2" fill="#000000" transform="translate(564.625000, 331.250000) rotate(-270.000000) translate(-564.625000, -331.250000) " xlink:href="#path-7"></use>
    </g>
</svg>